<svg xmlns="http://www.w3.org/2000/svg" viewBox="0 0 24 24" fill="#000000">
  <path d="M22.282 9.821a5.985 5.985 0 0 0-.516-4.91 6.046 6.046 0 0 0-6.51-2.9A6.065 6.065 0 0 0 4.981 4.18a5.985 5.985 0 0 0-3.998 2.9 6.046 6.046 0 0 0 .743 7.097 5.98 5.98 0 0 0 .51 4.911 6.051 6.051 0 0 0 6.515 2.9A5.985 5.985 0 0 0 13.26 24a6.056 6.056 0 0 0 5.772-4.206 5.99 5.99 0 0 0 3.997-2.9 6.056 6.056 0 0 0-.747-7.073zM13.26 22.43a4.476 4.476 0 0 1-2.876-1.04l.141-.081 4.779-2.758a.795.795 0 0 0 .392-.681v-6.737l2.02 1.168a.071.071 0 0 1 .038.052v5.583a4.504 4.504 0 0 1-4.494 4.494zM3.6 18.304a4.47 4.47 0 0 1-.535-3.014l.142.085 4.783 2.759a.771.771 0 0 0 .78 0l5.843-3.369v2.332a.08.08 0 0 1-.032.067L9.73 19.932a4.5 4.5 0 0 1-6.13-1.628zm-1.187-9.908a4.47 4.47 0 0 1 2.34-1.965V11.6a.766.766 0 0 0 .388.676l5.815 3.355-2.02 1.168a.076.076 0 0 1-.071 0L4.142 14.4a4.505 4.505 0 0 1-1.729-6.004zm16.585 3.866-5.843-3.374 2.02-1.163a.076.076 0 0 1 .071 0l4.724 2.727a4.5 4.5 0 0 1-.695 8.112v-5.176a.79.79 0 0 0-.277-.126zm2.01-3.055-.145-.085-4.773-2.76a.772.772 0 0 0-.78 0L9.47 10.73V8.4a.08.08 0 0 1 .032-.067l4.842-2.795a4.5 4.5 0 0 1 6.681 4.66zm-12.64 4.135-2.02-1.164a.08.08 0 0 1-.038-.057V6.537a4.5 4.5 0 0 1 7.375-3.453l-.142.08L8.756 5.92a.795.795 0 0 0-.393.681zm1.097-2.365 2.602-1.5 2.607 1.5v2.999l-2.597 1.5-2.607-1.5Z"/>
</svg>
